<?xml version="1.0" encoding="UTF-8" standalone="no"?>
<!DOCTYPE svg PUBLIC "-//W3C//DTD SVG 1.1//EN" "http://www.w3.org/Graphics/SVG/1.1/DTD/svg11.dtd">
<svg width="100%" height="100%" viewBox="0 0 21 161" version="1.1" xmlns="http://www.w3.org/2000/svg" xmlns:xlink="http://www.w3.org/1999/xlink" xml:space="preserve" xmlns:serif="http://www.serif.com/" style="fill-rule:evenodd;clip-rule:evenodd;stroke-linejoin:round;stroke-miterlimit:1.5;">
    <g transform="matrix(1,0,0,1,-1831,-494)">
        <g id="cover-cover_scroll.svg" serif:id="cover/cover_scroll.svg">
            <g id="cover_scroll_arrow">
                <path d="M1832,653.356L1848.87,624.644" style="fill:none;stroke:rgb(51,51,51);stroke-width:2px;"/>
                <rect id="arrow_line" x="1831" y="494" width="2" height="160" style="fill:rgb(51,51,51);"/>
            </g>
            <path id="SCROLL" d="M1840.9,499.179C1840.9,497.792 1841.45,496.406 1842.41,495.397L1843.84,496.588C1843.16,497.33 1842.69,498.311 1842.69,499.221C1842.69,500.3 1843.16,500.874 1843.89,500.874C1844.66,500.874 1844.89,500.244 1845.29,499.319L1845.88,497.932C1846.31,496.882 1847.15,495.831 1848.66,495.831C1850.36,495.831 1851.66,497.316 1851.66,499.417C1851.66,500.622 1851.18,501.827 1850.33,502.667L1849.03,501.616C1849.57,500.958 1849.88,500.272 1849.88,499.417C1849.88,498.507 1849.48,497.932 1848.79,497.932C1848.05,497.932 1847.78,498.661 1847.43,499.543L1846.86,500.902C1846.34,502.162 1845.54,502.989 1844.04,502.989C1842.35,502.989 1840.9,501.574 1840.9,499.179ZM1840.9,513.25C1840.9,510.63 1842.78,508.501 1846.24,508.501C1849.66,508.501 1851.66,510.7 1851.66,513.32C1851.66,514.637 1851.03,515.687 1850.33,516.359L1849.01,515.281C1849.52,514.748 1849.88,514.146 1849.88,513.362C1849.88,511.793 1848.54,510.616 1846.31,510.616C1844.05,510.616 1842.69,511.681 1842.69,513.32C1842.69,514.216 1843.12,514.903 1843.72,515.463L1842.43,516.555C1841.43,515.701 1840.9,514.595 1840.9,513.25ZM1841.1,522.417L1851.48,522.417L1851.48,526.031C1851.48,528.203 1850.71,529.925 1848.33,529.925C1846.77,529.925 1845.81,529.141 1845.34,527.95L1841.1,530.374L1841.1,528.062L1845.02,525.933L1845.02,524.491L1841.1,524.491L1841.1,522.417ZM1846.66,524.491L1846.66,525.835C1846.66,527.166 1847.22,527.908 1848.33,527.908C1849.45,527.908 1849.83,527.166 1849.83,525.835L1849.83,524.491L1846.66,524.491ZM1840.9,540.284C1840.9,537.538 1842.96,535.647 1846.32,535.647C1849.7,535.647 1851.66,537.538 1851.66,540.284C1851.66,543.029 1849.68,544.92 1846.32,544.92C1842.96,544.92 1840.9,543.029 1840.9,540.284ZM1842.69,540.284C1842.69,541.825 1844.11,542.805 1846.32,542.805C1848.55,542.805 1849.88,541.825 1849.88,540.284C1849.88,538.743 1848.55,537.762 1846.32,537.762C1844.11,537.762 1842.69,538.743 1842.69,540.284ZM1841.1,551.145L1851.48,551.145L1851.48,553.219L1842.84,553.219L1842.84,557.435L1841.1,557.435L1841.1,551.145ZM1841.1,563.437L1851.48,563.437L1851.48,565.51L1842.84,565.51L1842.84,569.727L1841.1,569.727L1841.1,563.437Z" style="fill:rgb(254,250,250);"/>
        </g>
    </g>
</svg>
