<?xml version="1.0" encoding="UTF-8" standalone="no"?>
<!DOCTYPE svg PUBLIC "-//W3C//DTD SVG 1.1//EN" "http://www.w3.org/Graphics/SVG/1.1/DTD/svg11.dtd">
<svg width="100%" height="100%" viewBox="0 0 272 30" version="1.1" xmlns="http://www.w3.org/2000/svg" xmlns:xlink="http://www.w3.org/1999/xlink" xml:space="preserve" xmlns:serif="http://www.serif.com/" style="fill-rule:evenodd;clip-rule:evenodd;stroke-linecap:square;stroke-linejoin:round;stroke-miterlimit:1.5;">
    <g transform="matrix(1,0,0,1,-807,-2634)">
        <g transform="matrix(1,0,0,1,-2290.03,1100.76)">
            <g id="Artboard9" transform="matrix(1.965,0,0,0.50083,-2989.59,793.14)">
                <rect x="3098" y="1478.23" width="137.913" height="57.904" style="fill:none;"/>
                <g transform="matrix(1,0,0,1,-1.63855,0)">
                    <g transform="matrix(0.135641,0.125294,-0.0319344,0.532186,3173.33,-60.0747)">
                        <g transform="matrix(-0.701667,8.59294e-17,-8.48454e-17,-0.692815,1565.11,4652.19)">
                            <path d="M882.953,2721.91L884.731,2712.66L888.91,2712.66L888.91,2793.22L882.953,2793.22L882.953,2721.91ZM873.965,2768.68L873.965,2793.22L869.248,2793.22L873.965,2768.68ZM948.689,2793.22L942.732,2793.22L942.732,2728.44L948.689,2759.43L948.689,2793.22ZM933.744,2793.22L927.787,2793.22L927.787,2712.66L933.744,2712.66L933.744,2793.22ZM918.799,2793.22L912.842,2793.22L912.842,2712.66L918.799,2712.66L918.799,2793.22ZM903.855,2793.22L897.898,2793.22L897.898,2712.66L903.855,2712.66L903.855,2793.22Z" style="fill:rgb(153,153,153);stroke:rgb(153,153,153);stroke-width:5.24px;"/>
                        </g>
                        <g transform="matrix(-0.701667,8.59294e-17,-8.48454e-17,-0.692815,1565.11,4652.19)">
                            <path d="M955.182,2793.22L869.248,2793.22L884.731,2712.66L939.7,2712.66L955.182,2793.22Z" style="fill:none;stroke:rgb(153,153,153);stroke-width:5.24px;"/>
                        </g>
                        <g transform="matrix(2.20354,-0.518788,0.518788,2.20354,-2633.18,-2730.17)">
                            <circle cx="984.499" cy="2691.11" r="0.591" style="fill:rgb(153,153,153);"/>
                        </g>
                        <g transform="matrix(2.20354,-0.518788,0.518788,2.20354,-2612.57,-2729.43)">
                            <circle cx="984.499" cy="2691.11" r="0.591" style="fill:rgb(153,153,153);"/>
                        </g>
                        <g transform="matrix(2.20354,-0.518788,0.518788,2.20354,-2637.06,-2712.94)">
                            <path d="M970.087,2690.1C969.518,2689.99 969.089,2689.49 969.089,2688.89C969.089,2688.21 969.641,2687.66 970.321,2687.66C970.532,2687.66 970.732,2687.71 970.906,2687.8C970.847,2687.66 970.814,2687.5 970.814,2687.34C970.814,2686.66 971.366,2686.11 972.046,2686.11C972.726,2686.11 973.278,2686.66 973.278,2687.34C973.278,2687.49 973.251,2687.64 973.2,2687.77C973.358,2687.7 973.534,2687.66 973.72,2687.66C974.399,2687.66 974.952,2688.21 974.952,2688.89C974.952,2689.37 974.671,2689.79 974.263,2689.99C974.418,2690.2 974.51,2690.46 974.51,2690.74C974.51,2691.41 973.958,2691.97 973.278,2691.97C973.001,2691.97 972.745,2691.88 972.538,2691.72C972.522,2691.72 972.505,2691.72 972.488,2691.72C972.263,2691.72 972.053,2691.66 971.872,2691.55C971.69,2691.66 971.48,2691.72 971.256,2691.72C970.576,2691.72 970.024,2691.17 970.024,2690.49C970.024,2690.35 970.046,2690.22 970.087,2690.1Z" style="fill:rgb(153,153,153);"/>
                        </g>
                        <g transform="matrix(2.20354,-0.518788,0.518788,2.20354,-2634.35,-2709.56)">
                            <path d="M970.087,2690.1C969.518,2689.99 969.089,2689.49 969.089,2688.89C969.089,2688.21 969.641,2687.66 970.321,2687.66C970.532,2687.66 970.732,2687.71 970.906,2687.8C970.847,2687.66 970.814,2687.5 970.814,2687.34C970.814,2686.66 971.366,2686.11 972.046,2686.11C972.726,2686.11 973.278,2686.66 973.278,2687.34C973.278,2687.49 973.251,2687.64 973.2,2687.77C973.358,2687.7 973.534,2687.66 973.72,2687.66C974.399,2687.66 974.952,2688.21 974.952,2688.89C974.952,2689.37 974.671,2689.79 974.263,2689.99C974.418,2690.2 974.51,2690.46 974.51,2690.74C974.51,2691.41 973.958,2691.97 973.278,2691.97C973.001,2691.97 972.745,2691.88 972.538,2691.72C972.522,2691.72 972.505,2691.72 972.488,2691.72C972.263,2691.72 972.053,2691.66 971.872,2691.55C971.69,2691.66 971.48,2691.72 971.256,2691.72C970.576,2691.72 970.024,2691.17 970.024,2690.49C970.024,2690.35 970.046,2690.22 970.087,2690.1Z" style="fill:rgb(153,153,153);"/>
                        </g>
                        <g transform="matrix(2.20354,-0.518788,0.518788,2.20354,-2620.79,-2712.06)">
                            <path d="M970.087,2690.1C969.518,2689.99 969.089,2689.49 969.089,2688.89C969.089,2688.21 969.641,2687.66 970.321,2687.66C970.532,2687.66 970.732,2687.71 970.906,2687.8C970.847,2687.66 970.814,2687.5 970.814,2687.34C970.814,2686.66 971.366,2686.11 972.046,2686.11C972.726,2686.11 973.278,2686.66 973.278,2687.34C973.278,2687.49 973.251,2687.64 973.2,2687.77C973.358,2687.7 973.534,2687.66 973.72,2687.66C974.399,2687.66 974.952,2688.21 974.952,2688.89C974.952,2689.37 974.671,2689.79 974.263,2689.99C974.418,2690.2 974.51,2690.46 974.51,2690.74C974.51,2691.41 973.958,2691.97 973.278,2691.97C973.001,2691.97 972.745,2691.88 972.538,2691.72C972.522,2691.72 972.505,2691.72 972.488,2691.72C972.263,2691.72 972.053,2691.66 971.872,2691.55C971.69,2691.66 971.48,2691.72 971.256,2691.72C970.576,2691.72 970.024,2691.17 970.024,2690.49C970.024,2690.35 970.046,2690.22 970.087,2690.1Z" style="fill:rgb(153,153,153);"/>
                        </g>
                        <g transform="matrix(2.20354,-0.518788,0.518788,2.20354,-2622.07,-2717.52)">
                            <path d="M970.087,2690.1C969.518,2689.99 969.089,2689.49 969.089,2688.89C969.089,2688.21 969.641,2687.66 970.321,2687.66C970.532,2687.66 970.732,2687.71 970.906,2687.8C970.847,2687.66 970.814,2687.5 970.814,2687.34C970.814,2686.66 971.366,2686.11 972.046,2686.11C972.726,2686.11 973.278,2686.66 973.278,2687.34C973.278,2687.49 973.251,2687.64 973.2,2687.77C973.358,2687.7 973.534,2687.66 973.72,2687.66C974.399,2687.66 974.952,2688.21 974.952,2688.89C974.952,2689.37 974.671,2689.79 974.263,2689.99C974.418,2690.2 974.51,2690.46 974.51,2690.74C974.51,2691.41 973.958,2691.97 973.278,2691.97C973.001,2691.97 972.745,2691.88 972.538,2691.72C972.522,2691.72 972.505,2691.72 972.488,2691.72C972.263,2691.72 972.053,2691.66 971.872,2691.55C971.69,2691.66 971.48,2691.72 971.256,2691.72C970.576,2691.72 970.024,2691.17 970.024,2690.49C970.024,2690.35 970.046,2690.22 970.087,2690.1Z" style="fill:rgb(153,153,153);"/>
                        </g>
                        <g transform="matrix(2.20354,-0.518788,0.518788,2.20354,-2611.25,-2711.23)">
                            <circle cx="984.499" cy="2691.11" r="0.591" style="fill:rgb(153,153,153);"/>
                        </g>
                        <g transform="matrix(2.20354,-0.518788,0.518788,2.20354,-2597.73,-2740.71)">
                            <path d="M970.087,2690.1C969.518,2689.99 969.089,2689.49 969.089,2688.89C969.089,2688.21 969.641,2687.66 970.321,2687.66C970.532,2687.66 970.732,2687.71 970.906,2687.8C970.847,2687.66 970.814,2687.5 970.814,2687.34C970.814,2686.66 971.366,2686.11 972.046,2686.11C972.726,2686.11 973.278,2686.66 973.278,2687.34C973.278,2687.49 973.251,2687.64 973.2,2687.77C973.358,2687.7 973.534,2687.66 973.72,2687.66C974.399,2687.66 974.952,2688.21 974.952,2688.89C974.952,2689.37 974.671,2689.79 974.263,2689.99C974.418,2690.2 974.51,2690.46 974.51,2690.74C974.51,2691.41 973.958,2691.97 973.278,2691.97C973.001,2691.97 972.745,2691.88 972.538,2691.72C972.522,2691.72 972.505,2691.72 972.488,2691.72C972.263,2691.72 972.053,2691.66 971.872,2691.55C971.69,2691.66 971.48,2691.72 971.256,2691.72C970.576,2691.72 970.024,2691.17 970.024,2690.49C970.024,2690.35 970.046,2690.22 970.087,2690.1Z" style="fill:rgb(153,153,153);"/>
                        </g>
                        <g transform="matrix(2.20354,-0.518788,0.518788,2.20354,-2671.04,-2724.55)">
                            <circle cx="984.499" cy="2691.11" r="0.591" style="fill:rgb(153,153,153);"/>
                        </g>
                        <g transform="matrix(2.20354,-0.518788,0.518788,2.20354,-2648.66,-2728.44)">
                            <circle cx="984.499" cy="2691.11" r="0.591" style="fill:rgb(153,153,153);"/>
                        </g>
                        <g transform="matrix(2.20354,-0.518788,0.518788,2.20354,-2616.37,-2715.54)">
                            <path d="M970.087,2690.1C969.518,2689.99 969.089,2689.49 969.089,2688.89C969.089,2688.21 969.641,2687.66 970.321,2687.66C970.532,2687.66 970.732,2687.71 970.906,2687.8C970.847,2687.66 970.814,2687.5 970.814,2687.34C970.814,2686.66 971.366,2686.11 972.046,2686.11C972.726,2686.11 973.278,2686.66 973.278,2687.34C973.278,2687.49 973.251,2687.64 973.2,2687.77C973.358,2687.7 973.534,2687.66 973.72,2687.66C974.399,2687.66 974.952,2688.21 974.952,2688.89C974.952,2689.37 974.671,2689.79 974.263,2689.99C974.418,2690.2 974.51,2690.46 974.51,2690.74C974.51,2691.41 973.958,2691.97 973.278,2691.97C973.001,2691.97 972.745,2691.88 972.538,2691.72C972.522,2691.72 972.505,2691.72 972.488,2691.72C972.263,2691.72 972.053,2691.66 971.872,2691.55C971.69,2691.66 971.48,2691.72 971.256,2691.72C970.576,2691.72 970.024,2691.17 970.024,2690.49C970.024,2690.35 970.046,2690.22 970.087,2690.1Z" style="fill:rgb(153,153,153);"/>
                        </g>
                        <g transform="matrix(2.20354,-0.518788,0.518788,2.20354,-2580.3,-2716.94)">
                            <path d="M970.814,2687.34C970.134,2687.34 969.582,2686.79 969.582,2686.11C969.582,2685.76 969.723,2685.45 969.951,2685.23C969.889,2685.08 969.855,2684.92 969.855,2684.75C969.855,2684.07 970.407,2683.52 971.087,2683.52C971.492,2683.52 971.852,2683.72 972.077,2684.02C972.201,2683.47 972.692,2683.06 973.278,2683.06C973.958,2683.06 974.51,2683.61 974.51,2684.29C974.51,2684.5 974.458,2684.7 974.367,2684.87C974.832,2685.04 975.164,2685.49 975.164,2686.02C975.164,2686.42 974.971,2686.78 974.673,2687.01C974.673,2687.01 974.673,2687.02 974.673,2687.03C974.673,2687.71 974.121,2688.26 973.441,2688.26C973.27,2688.26 973.107,2688.23 972.959,2688.17C972.734,2688.41 972.408,2688.57 972.046,2688.57C971.366,2688.57 970.814,2688.02 970.814,2687.34Z" style="fill:rgb(153,153,153);"/>
                        </g>
                        <g transform="matrix(2.20354,-0.518788,0.518788,2.20354,-2611.19,-2719.57)">
                            <path d="M970.814,2687.34C970.134,2687.34 969.582,2686.79 969.582,2686.11C969.582,2685.76 969.723,2685.45 969.951,2685.23C969.889,2685.08 969.855,2684.92 969.855,2684.75C969.855,2684.07 970.407,2683.52 971.087,2683.52C971.492,2683.52 971.852,2683.72 972.077,2684.02C972.201,2683.47 972.692,2683.06 973.278,2683.06C973.958,2683.06 974.51,2683.61 974.51,2684.29C974.51,2684.5 974.458,2684.7 974.367,2684.87C974.832,2685.04 975.164,2685.49 975.164,2686.02C975.164,2686.42 974.971,2686.78 974.673,2687.01C974.673,2687.01 974.673,2687.02 974.673,2687.03C974.673,2687.71 974.121,2688.26 973.441,2688.26C973.27,2688.26 973.107,2688.23 972.959,2688.17C972.734,2688.41 972.408,2688.57 972.046,2688.57C971.366,2688.57 970.814,2688.02 970.814,2687.34Z" style="fill:rgb(153,153,153);"/>
                        </g>
                        <g transform="matrix(2.20354,-0.518788,0.518788,2.20354,-2616.98,-2712.27)">
                            <path d="M970.814,2687.34C970.134,2687.34 969.582,2686.79 969.582,2686.11C969.582,2685.76 969.723,2685.45 969.951,2685.23C969.889,2685.08 969.855,2684.92 969.855,2684.75C969.855,2684.07 970.407,2683.52 971.087,2683.52C971.492,2683.52 971.852,2683.72 972.077,2684.02C972.201,2683.47 972.692,2683.06 973.278,2683.06C973.958,2683.06 974.51,2683.61 974.51,2684.29C974.51,2684.5 974.458,2684.7 974.367,2684.87C974.832,2685.04 975.164,2685.49 975.164,2686.02C975.164,2686.42 974.971,2686.78 974.673,2687.01C974.673,2687.01 974.673,2687.02 974.673,2687.03C974.673,2687.71 974.121,2688.26 973.441,2688.26C973.27,2688.26 973.107,2688.23 972.959,2688.17C972.734,2688.41 972.408,2688.57 972.046,2688.57C971.366,2688.57 970.814,2688.02 970.814,2687.34Z" style="fill:rgb(153,153,153);"/>
                        </g>
                        <g transform="matrix(2.20354,-0.518788,0.518788,2.20354,-2598.36,-2705.13)">
                            <path d="M970.814,2687.34C970.134,2687.34 969.582,2686.79 969.582,2686.11C969.582,2685.76 969.723,2685.45 969.951,2685.23C969.889,2685.08 969.855,2684.92 969.855,2684.75C969.855,2684.07 970.407,2683.52 971.087,2683.52C971.492,2683.52 971.852,2683.72 972.077,2684.02C972.201,2683.47 972.692,2683.06 973.278,2683.06C973.958,2683.06 974.51,2683.61 974.51,2684.29C974.51,2684.5 974.458,2684.7 974.367,2684.87C974.832,2685.04 975.164,2685.49 975.164,2686.02C975.164,2686.42 974.971,2686.78 974.673,2687.01C974.673,2687.01 974.673,2687.02 974.673,2687.03C974.673,2687.71 974.121,2688.26 973.441,2688.26C973.27,2688.26 973.107,2688.23 972.959,2688.17C972.734,2688.41 972.408,2688.57 972.046,2688.57C971.366,2688.57 970.814,2688.02 970.814,2687.34Z" style="fill:rgb(153,153,153);"/>
                        </g>
                        <g transform="matrix(2.20354,-0.518788,0.518788,2.20354,-2598.82,-2710.79)">
                            <path d="M970.814,2687.34C970.134,2687.34 969.582,2686.79 969.582,2686.11C969.582,2685.76 969.723,2685.45 969.951,2685.23C969.889,2685.08 969.855,2684.92 969.855,2684.75C969.855,2684.07 970.407,2683.52 971.087,2683.52C971.492,2683.52 971.852,2683.72 972.077,2684.02C972.201,2683.47 972.692,2683.06 973.278,2683.06C973.958,2683.06 974.51,2683.61 974.51,2684.29C974.51,2684.5 974.458,2684.7 974.367,2684.87C974.832,2685.04 975.164,2685.49 975.164,2686.02C975.164,2686.42 974.971,2686.78 974.673,2687.01C974.673,2687.01 974.673,2687.02 974.673,2687.03C974.673,2687.71 974.121,2688.26 973.441,2688.26C973.27,2688.26 973.107,2688.23 972.959,2688.17C972.734,2688.41 972.408,2688.57 972.046,2688.57C971.366,2688.57 970.814,2688.02 970.814,2687.34Z" style="fill:rgb(153,153,153);"/>
                        </g>
                        <g transform="matrix(2.20354,-0.518788,0.518788,2.20354,-2599.32,-2710.65)">
                            <path d="M970.087,2690.1C969.518,2689.99 969.089,2689.49 969.089,2688.89C969.089,2688.21 969.641,2687.66 970.321,2687.66C970.532,2687.66 970.732,2687.71 970.906,2687.8C970.847,2687.66 970.814,2687.5 970.814,2687.34C970.814,2686.66 971.366,2686.11 972.046,2686.11C972.726,2686.11 973.278,2686.66 973.278,2687.34C973.278,2687.49 973.251,2687.64 973.2,2687.77C973.358,2687.7 973.534,2687.66 973.72,2687.66C974.399,2687.66 974.952,2688.21 974.952,2688.89C974.952,2689.37 974.671,2689.79 974.263,2689.99C974.418,2690.2 974.51,2690.46 974.51,2690.74C974.51,2691.41 973.958,2691.97 973.278,2691.97C973.001,2691.97 972.745,2691.88 972.538,2691.72C972.522,2691.72 972.505,2691.72 972.488,2691.72C972.263,2691.72 972.053,2691.66 971.872,2691.55C971.69,2691.66 971.48,2691.72 971.256,2691.72C970.576,2691.72 970.024,2691.17 970.024,2690.49C970.024,2690.35 970.046,2690.22 970.087,2690.1Z" style="fill:rgb(153,153,153);"/>
                        </g>
                        <g transform="matrix(2.20354,-0.518788,0.518788,2.20354,-2597.94,-2727.04)">
                            <path d="M970.087,2690.1C969.518,2689.99 969.089,2689.49 969.089,2688.89C969.089,2688.21 969.641,2687.66 970.321,2687.66C970.532,2687.66 970.732,2687.71 970.906,2687.8C970.847,2687.66 970.814,2687.5 970.814,2687.34C970.814,2686.66 971.366,2686.11 972.046,2686.11C972.726,2686.11 973.278,2686.66 973.278,2687.34C973.278,2687.49 973.251,2687.64 973.2,2687.77C973.358,2687.7 973.534,2687.66 973.72,2687.66C974.399,2687.66 974.952,2688.21 974.952,2688.89C974.952,2689.37 974.671,2689.79 974.263,2689.99C974.418,2690.2 974.51,2690.46 974.51,2690.74C974.51,2691.41 973.958,2691.97 973.278,2691.97C973.001,2691.97 972.745,2691.88 972.538,2691.72C972.522,2691.72 972.505,2691.72 972.488,2691.72C972.263,2691.72 972.053,2691.66 971.872,2691.55C971.69,2691.66 971.48,2691.72 971.256,2691.72C970.576,2691.72 970.024,2691.17 970.024,2690.49C970.024,2690.35 970.046,2690.22 970.087,2690.1Z" style="fill:rgb(153,153,153);"/>
                        </g>
                        <g transform="matrix(2.20354,-0.518788,0.518788,2.20354,-2592.32,-2719.46)">
                            <path d="M970.087,2690.1C969.518,2689.99 969.089,2689.49 969.089,2688.89C969.089,2688.21 969.641,2687.66 970.321,2687.66C970.532,2687.66 970.732,2687.71 970.906,2687.8C970.847,2687.66 970.814,2687.5 970.814,2687.34C970.814,2686.66 971.366,2686.11 972.046,2686.11C972.726,2686.11 973.278,2686.66 973.278,2687.34C973.278,2687.49 973.251,2687.64 973.2,2687.77C973.358,2687.7 973.534,2687.66 973.72,2687.66C974.399,2687.66 974.952,2688.21 974.952,2688.89C974.952,2689.37 974.671,2689.79 974.263,2689.99C974.418,2690.2 974.51,2690.46 974.51,2690.74C974.51,2691.41 973.958,2691.97 973.278,2691.97C973.001,2691.97 972.745,2691.88 972.538,2691.72C972.522,2691.72 972.505,2691.72 972.488,2691.72C972.263,2691.72 972.053,2691.66 971.872,2691.55C971.69,2691.66 971.48,2691.72 971.256,2691.72C970.576,2691.72 970.024,2691.17 970.024,2690.49C970.024,2690.35 970.046,2690.22 970.087,2690.1Z" style="fill:rgb(153,153,153);"/>
                        </g>
                        <g transform="matrix(2.20354,-0.518788,0.518788,2.20354,-2609.52,-2719.07)">
                            <path d="M970.087,2690.1C969.518,2689.99 969.089,2689.49 969.089,2688.89C969.089,2688.21 969.641,2687.66 970.321,2687.66C970.532,2687.66 970.732,2687.71 970.906,2687.8C970.847,2687.66 970.814,2687.5 970.814,2687.34C970.814,2686.66 971.366,2686.11 972.046,2686.11C972.726,2686.11 973.278,2686.66 973.278,2687.34C973.278,2687.49 973.251,2687.64 973.2,2687.77C973.358,2687.7 973.534,2687.66 973.72,2687.66C974.399,2687.66 974.952,2688.21 974.952,2688.89C974.952,2689.37 974.671,2689.79 974.263,2689.99C974.418,2690.2 974.51,2690.46 974.51,2690.74C974.51,2691.41 973.958,2691.97 973.278,2691.97C973.001,2691.97 972.745,2691.88 972.538,2691.72C972.522,2691.72 972.505,2691.72 972.488,2691.72C972.263,2691.72 972.053,2691.66 971.872,2691.55C971.69,2691.66 971.48,2691.72 971.256,2691.72C970.576,2691.72 970.024,2691.17 970.024,2690.49C970.024,2690.35 970.046,2690.22 970.087,2690.1Z" style="fill:rgb(153,153,153);"/>
                        </g>
                        <g transform="matrix(2.20354,-0.518788,0.518788,2.20354,-2627.57,-2725.3)">
                            <path d="M970.087,2690.1C969.518,2689.99 969.089,2689.49 969.089,2688.89C969.089,2688.21 969.641,2687.66 970.321,2687.66C970.532,2687.66 970.732,2687.71 970.906,2687.8C970.847,2687.66 970.814,2687.5 970.814,2687.34C970.814,2686.66 971.366,2686.11 972.046,2686.11C972.726,2686.11 973.278,2686.66 973.278,2687.34C973.278,2687.49 973.251,2687.64 973.2,2687.77C973.358,2687.7 973.534,2687.66 973.72,2687.66C974.399,2687.66 974.952,2688.21 974.952,2688.89C974.952,2689.37 974.671,2689.79 974.263,2689.99C974.418,2690.2 974.51,2690.46 974.51,2690.74C974.51,2691.41 973.958,2691.97 973.278,2691.97C973.001,2691.97 972.745,2691.88 972.538,2691.72C972.522,2691.72 972.505,2691.72 972.488,2691.72C972.263,2691.72 972.053,2691.66 971.872,2691.55C971.69,2691.66 971.48,2691.72 971.256,2691.72C970.576,2691.72 970.024,2691.17 970.024,2690.49C970.024,2690.35 970.046,2690.22 970.087,2690.1Z" style="fill:rgb(153,153,153);"/>
                        </g>
                        <g transform="matrix(2.20354,-0.518788,0.518788,2.20354,-2589.43,-2700.6)">
                            <path d="M970.814,2687.34C970.134,2687.34 969.582,2686.79 969.582,2686.11C969.582,2685.76 969.723,2685.45 969.951,2685.23C969.889,2685.08 969.855,2684.92 969.855,2684.75C969.855,2684.07 970.407,2683.52 971.087,2683.52C971.492,2683.52 971.852,2683.72 972.077,2684.02C972.201,2683.47 972.692,2683.06 973.278,2683.06C973.958,2683.06 974.51,2683.61 974.51,2684.29C974.51,2684.5 974.458,2684.7 974.367,2684.87C974.832,2685.04 975.164,2685.49 975.164,2686.02C975.164,2686.42 974.971,2686.78 974.673,2687.01C974.673,2687.01 974.673,2687.02 974.673,2687.03C974.673,2687.71 974.121,2688.26 973.441,2688.26C973.27,2688.26 973.107,2688.23 972.959,2688.17C972.734,2688.41 972.408,2688.57 972.046,2688.57C971.366,2688.57 970.814,2688.02 970.814,2687.34Z" style="fill:rgb(153,153,153);"/>
                        </g>
                        <g transform="matrix(2.20354,-0.518788,0.518788,2.20354,-2607.44,-2701.42)">
                            <path d="M970.814,2687.34C970.134,2687.34 969.582,2686.79 969.582,2686.11C969.582,2685.76 969.723,2685.45 969.951,2685.23C969.889,2685.08 969.855,2684.92 969.855,2684.75C969.855,2684.07 970.407,2683.52 971.087,2683.52C971.492,2683.52 971.852,2683.72 972.077,2684.02C972.201,2683.47 972.692,2683.06 973.278,2683.06C973.958,2683.06 974.51,2683.61 974.51,2684.29C974.51,2684.5 974.458,2684.7 974.367,2684.87C974.832,2685.04 975.164,2685.49 975.164,2686.02C975.164,2686.42 974.971,2686.78 974.673,2687.01C974.673,2687.01 974.673,2687.02 974.673,2687.03C974.673,2687.71 974.121,2688.26 973.441,2688.26C973.27,2688.26 973.107,2688.23 972.959,2688.17C972.734,2688.41 972.408,2688.57 972.046,2688.57C971.366,2688.57 970.814,2688.02 970.814,2687.34Z" style="fill:rgb(153,153,153);"/>
                        </g>
                        <g transform="matrix(2.20354,-0.518788,0.518788,2.20354,-2619.73,-2700.97)">
                            <path d="M970.814,2687.34C970.134,2687.34 969.582,2686.79 969.582,2686.11C969.582,2685.76 969.723,2685.45 969.951,2685.23C969.889,2685.08 969.855,2684.92 969.855,2684.75C969.855,2684.07 970.407,2683.52 971.087,2683.52C971.492,2683.52 971.852,2683.72 972.077,2684.02C972.201,2683.47 972.692,2683.06 973.278,2683.06C973.958,2683.06 974.51,2683.61 974.51,2684.29C974.51,2684.5 974.458,2684.7 974.367,2684.87C974.832,2685.04 975.164,2685.49 975.164,2686.02C975.164,2686.42 974.971,2686.78 974.673,2687.01C974.673,2687.01 974.673,2687.02 974.673,2687.03C974.673,2687.71 974.121,2688.26 973.441,2688.26C973.27,2688.26 973.107,2688.23 972.959,2688.17C972.734,2688.41 972.408,2688.57 972.046,2688.57C971.366,2688.57 970.814,2688.02 970.814,2687.34Z" style="fill:rgb(153,153,153);"/>
                        </g>
                        <g transform="matrix(2.20354,-0.518788,0.518788,2.20354,-2645.71,-2738.92)">
                            <circle cx="984.499" cy="2691.11" r="0.591" style="fill:rgb(153,153,153);"/>
                        </g>
                        <g transform="matrix(2.20354,-0.518788,0.518788,2.20354,-2613.95,-2736.79)">
                            <circle cx="984.499" cy="2691.11" r="0.591" style="fill:rgb(153,153,153);"/>
                        </g>
                        <g transform="matrix(2.20354,-0.518788,0.518788,2.20354,-2631.31,-2714.47)">
                            <path d="M970.087,2690.1C969.518,2689.99 969.089,2689.49 969.089,2688.89C969.089,2688.21 969.641,2687.66 970.321,2687.66C970.532,2687.66 970.732,2687.71 970.906,2687.8C970.847,2687.66 970.814,2687.5 970.814,2687.34C970.814,2686.66 971.366,2686.11 972.046,2686.11C972.726,2686.11 973.278,2686.66 973.278,2687.34C973.278,2687.49 973.251,2687.64 973.2,2687.77C973.358,2687.7 973.534,2687.66 973.72,2687.66C974.399,2687.66 974.952,2688.21 974.952,2688.89C974.952,2689.37 974.671,2689.79 974.263,2689.99C974.418,2690.2 974.51,2690.46 974.51,2690.74C974.51,2691.41 973.958,2691.97 973.278,2691.97C973.001,2691.97 972.745,2691.88 972.538,2691.72C972.522,2691.72 972.505,2691.72 972.488,2691.72C972.263,2691.72 972.053,2691.66 971.872,2691.55C971.69,2691.66 971.48,2691.72 971.256,2691.72C970.576,2691.72 970.024,2691.17 970.024,2690.49C970.024,2690.35 970.046,2690.22 970.087,2690.1Z" style="fill:rgb(153,153,153);"/>
                        </g>
                    </g>
                    <g transform="matrix(0.430588,0,0,1.68941,1757.03,-947.77)">
                        <g transform="matrix(1,0,0,1,2362,-1128.54)">
                            <g transform="matrix(1.4,0,0,1,-327.285,0)">
                                <g transform="matrix(26.5113,0,0,26.5113,891.568,2593.28)">
                                </g>
                                <text x="818.211px" y="2593.28px" style="font-family:'Impact';font-stretch:condensed;font-size:26.511px;fill:rgb(153,153,153);">o<tspan x="830.969px 843.935px 856.253px 869.011px 877.704px " y="2593.28px 2593.28px 2593.28px 2593.28px 2593.28px ">pcorn</tspan></text>
                            </g>
                        </g>
                        <g transform="matrix(1,0,0,1,3,0)">
                            <g transform="matrix(1,0,0,1,2492.45,-1128.54)">
                                <g transform="matrix(1.4,0,0,1,-327.285,0)">
                                    <g transform="matrix(26.5113,0,0,26.5113,854.886,2593.28)">
                                    </g>
                                    <text x="818.211px" y="2593.28px" style="font-family:'Impact';font-stretch:condensed;font-size:26.511px;fill:rgb(153,153,153);">c<tspan x="830.529px 842.407px " y="2593.28px 2593.28px ">ks</tspan></text>
                                </g>
                            </g>
                            <g transform="matrix(1,0,0,1,2465.13,-1128.23)">
                                <g transform="matrix(1.4,0,0,1,-327.285,0)">
                                    <g transform="matrix(26.5113,0,0,26.5113,831.519,2593.28)">
                                    </g>
                                    <text x="818.211px" y="2593.28px" style="font-family:'Impact';font-stretch:condensed;font-size:26.511px;fill:rgb(153,153,153);">P</text>
                                </g>
                            </g>
                            <g transform="matrix(1,0,0,1,73.0262,20.7326)">
                                <g transform="matrix(1,0,0,1,2290.03,-1100.76)">
                                    <path d="M947.243,2528.93L947.243,2545.09L939.704,2545.09L939.704,2527.91L940.15,2527.91C940.512,2528.62 941.255,2529.11 942.111,2529.11C942.511,2529.11 942.886,2529.01 943.209,2528.82C943.532,2529.01 943.907,2529.11 944.307,2529.11C944.337,2529.11 944.367,2529.11 944.397,2529.11C944.764,2529.39 945.221,2529.55 945.716,2529.55C946.309,2529.55 946.848,2529.32 947.243,2528.93Z" style="fill:none;stroke:rgb(153,153,153);stroke-width:1.18px;stroke-linecap:butt;stroke-miterlimit:2;"/>
                                </g>
                                <g transform="matrix(1.78223,-1.68636e-15,-2.73464e-16,1.78223,1501.14,-3368.9)">
                                    <path d="M970.087,2690.1C969.518,2689.99 969.089,2689.49 969.089,2688.89C969.089,2688.21 969.641,2687.66 970.321,2687.66C970.532,2687.66 970.732,2687.71 970.906,2687.8C970.847,2687.66 970.814,2687.5 970.814,2687.34C970.814,2686.66 971.366,2686.11 972.046,2686.11C972.726,2686.11 973.278,2686.66 973.278,2687.34C973.278,2687.49 973.251,2687.64 973.2,2687.77C973.358,2687.7 973.534,2687.66 973.72,2687.66C974.399,2687.66 974.952,2688.21 974.952,2688.89C974.952,2689.37 974.671,2689.79 974.263,2689.99C974.418,2690.2 974.51,2690.46 974.51,2690.74C974.51,2691.41 973.958,2691.97 973.278,2691.97C973.001,2691.97 972.745,2691.88 972.538,2691.72C972.522,2691.72 972.505,2691.72 972.488,2691.72C972.263,2691.72 972.053,2691.66 971.872,2691.55C971.69,2691.66 971.48,2691.72 971.256,2691.72C970.576,2691.72 970.024,2691.17 970.024,2690.49C970.024,2690.35 970.046,2690.22 970.087,2690.1Z" style="fill:none;stroke:rgb(153,153,153);stroke-width:0.66px;"/>
                                </g>
                            </g>
                            <g transform="matrix(1.2136,0,0,1.2136,2124.27,-1760.32)">
                                <path d="M971.067,2644.2L971.067,2657.69L977.319,2657.69L977.237,2644.89L971.067,2644.2Z" style="fill:rgb(153,153,153);"/>
                            </g>
                        </g>
                        <g transform="matrix(1,0,0,1,2344.41,-1128)">
                            <path d="M819.734,2572.33L827.418,2572.33C829.496,2572.33 831.094,2572.44 832.211,2572.68C833.329,2572.91 834.169,2573.24 834.731,2573.68C835.292,2574.13 835.673,2574.66 835.872,2575.28C836.072,2575.91 836.171,2576.88 836.171,2578.19L836.171,2580.01C836.171,2581.35 835.978,2582.33 835.591,2582.94C835.205,2583.55 834.495,2584.02 833.462,2584.35C832.429,2584.68 831.079,2584.84 829.411,2584.84L827.364,2584.84L827.364,2593.28L819.734,2593.28L819.734,2572.33ZM824.831,2580.11C824.775,2580.28 824.745,2580.46 824.745,2580.64C824.745,2581.57 825.499,2582.33 826.427,2582.33C826.733,2582.33 827.02,2582.24 827.268,2582.1C827.515,2582.24 827.803,2582.33 828.109,2582.33C828.132,2582.33 828.155,2582.33 828.178,2582.32C828.46,2582.54 828.809,2582.66 829.188,2582.66C830.117,2582.66 830.87,2581.91 830.87,2580.98C830.87,2580.6 830.745,2580.25 830.533,2579.97C831.089,2579.7 831.473,2579.12 831.473,2578.46C831.473,2577.53 830.719,2576.78 829.791,2576.78C829.537,2576.78 829.297,2576.84 829.081,2576.93C829.15,2576.75 829.188,2576.55 829.188,2576.34C829.188,2575.42 828.435,2574.66 827.506,2574.66C826.578,2574.66 825.825,2575.42 825.825,2576.34C825.825,2576.57 825.869,2576.78 825.949,2576.98C825.712,2576.85 825.439,2576.78 825.15,2576.78C824.222,2576.78 823.469,2577.53 823.469,2578.46C823.469,2579.28 824.055,2579.96 824.831,2580.11Z" style="fill:rgb(153,153,153);"/>
                        </g>
                    </g>
                </g>
            </g>
        </g>
    </g>
</svg>
